<svg enable-background="new 0 0 49.945 24.007" height="24.007" viewBox="0 0 49.945 24.007" width="49.945" xmlns="http://www.w3.org/2000/svg"><g fill="#fff"><path d="m1.137 0c-.627 0-1.137.428-1.137 1.01v1.981c0 .558.494 1.01 1.139 1.01h47.671c.628 0 1.138-.428 1.138-1.01v-1.981c0-.558-.494-1.01-1.138-1.01zm0 10.003c-.627 0-1.137.428-1.137 1.01v1.98c0 .557.494 1.01 1.139 1.01h47.671c.628 0 1.138-.428 1.138-1.01v-1.98c0-.558-.494-1.01-1.138-1.01zm0 10.002c-.627 0-1.137.429-1.137 1.011v1.981c0 .557.494 1.01 1.139 1.01h47.671c.628 0 1.138-.428 1.138-1.01v-1.981c0-.558-.494-1.011-1.138-1.011z"/><path d="m1.137 0c-.627 0-1.137.428-1.137 1.01v1.981c0 .558.494 1.01 1.139 1.01h47.671c.628 0 1.138-.428 1.138-1.01v-1.981c0-.558-.494-1.01-1.138-1.01zm0 10.003c-.627 0-1.137.428-1.137 1.01v1.98c0 .557.494 1.01 1.139 1.01h47.671c.628 0 1.138-.428 1.138-1.01v-1.98c0-.558-.494-1.01-1.138-1.01zm0 10.002c-.627 0-1.137.429-1.137 1.011v1.981c0 .557.494 1.01 1.139 1.01h47.671c.628 0 1.138-.428 1.138-1.01v-1.981c0-.558-.494-1.011-1.138-1.011z"/></g></svg>