<svg enable-background="new 0 0 17.5 14.663" height="14.663" viewBox="0 0 17.5 14.663" width="17.5" xmlns="http://www.w3.org/2000/svg"><path clip-rule="evenodd" d="m11.283.153c1.736-.485 3.074.263 3.685 1.151.694-.226 1.372-.47 2.072-.691-.004.841-.538 1.478-.883 1.727.704.166 1.343-.48 1.343-.48-.175.976-1.035 1.746-1.611 1.977-.239 6.592-3.272 10.956-10.382 10.823-.538 0 .077 0-.46 0-.422 0-4.29-.45-5.047-1.843 2.341.192 4.011-.412 4.835-1.15-.989-.293-2.761-.464-3.07-2.881.362.105.583.223 1.228.117-1.236-.836-2.608-1.537-2.532-3.685.294.32 1.1.523 1.381.461-.725-.235-2.03-3.281-.921-4.836 1.873 1.811 3.848 3.521 7.369 3.685.216-2.24 1.171-3.741 2.993-4.375z" fill-rule="evenodd"/></svg>