<svg enable-background="new 0 0 23.867 23.867" height="23.867" viewBox="0 0 23.867 23.867" width="23.867" xmlns="http://www.w3.org/2000/svg"><path d="m15.087 11.933 8.56-8.559c.293-.293.293-.768 0-1.061l-2.093-2.093c-.14-.141-.331-.22-.531-.22-.199 0-.391.079-.529.22l-8.561 8.56-8.56-8.56c-.282-.282-.78-.282-1.061 0l-2.092 2.093c-.293.293-.293.768 0 1.061l8.56 8.559-8.56 8.559c-.293.293-.293.768 0 1.062l2.093 2.094c.141.142.331.22.53.22s.39-.078.53-.22l8.561-8.56 8.56 8.56c.141.142.332.22.53.22.199 0 .39-.078.53-.22l2.093-2.094c.293-.294.293-.769 0-1.062z" fill="#fff"/></svg>