<svg enable-background="new 0 0 26.752 26.752" height="26.752" viewBox="0 0 26.752 26.752" width="26.752" xmlns="http://www.w3.org/2000/svg"><path d="m15.497 13.376 10.815-10.814c.586-.585.586-1.535 0-2.121s-1.535-.586-2.121 0l-10.815 10.814-10.814-10.816c-.586-.586-1.535-.586-2.121 0-.586.585-.586 1.535 0 2.121l10.814 10.815-10.816 10.815c-.586.586-.586 1.535 0 2.121.293.293.677.439 1.061.439s.768-.146 1.061-.439l10.815-10.814 10.814 10.815c.293.293.677.439 1.061.439s.768-.146 1.061-.439c.586-.586.586-1.535 0-2.121z"/></svg>