<svg enable-background="new 0 0 19.697 19.696" height="19.696" viewBox="0 0 19.697 19.696" width="19.697" xmlns="http://www.w3.org/2000/svg"><path d="m9.848 0c-3.508 0-7.025.628-8.302 1.878-1.058 1.04-1.412 2.874-1.53 4.035 0 0-.016.115-.016.165 0 .454.369.82.819.82.054 0 2.028-.161 3.218-.259.029-.004.058-.008.086-.017.443-.012.801-.372.801-.819l.003-1.617c0-.5.407-.902.907-.902h8.027c.499 0 .907.402.907.902l.003 1.617c0 .447.356.808.802.82.027.009.056.013.085.017 1.19.098 3.164.259 3.217.259.451 0 .822-.366.822-.82 0-.05-.018-.165-.018-.165-.118-1.161-.472-2.995-1.53-4.035-1.276-1.251-4.793-1.879-8.301-1.879zm0 10.67c-.908 0-1.643.733-1.643 1.64s.734 1.641 1.643 1.641c.906 0 1.641-.733 1.641-1.641-.001-.906-.735-1.64-1.641-1.64zm-1.232-3.695v-1.024c0-.567-.46-1.026-1.025-1.026-.566 0-1.024.459-1.024 1.026v1.024l-5.537 5.913c-.382.376-.619.894-.619 1.47v1.646c0 .907.734 1.643 1.641 1.643h.411v1.023c0 .568.46 1.026 1.026 1.026.565 0 1.024-.458 1.024-1.026v-1.023h10.669v1.023c0 .568.46 1.026 1.025 1.026.567 0 1.026-.458 1.026-1.026v-1.023h.411c.905 0 1.64-.735 1.64-1.643v-1.646c0-.576-.236-1.094-.618-1.47l-5.536-5.913v-1.024c0-.567-.459-1.026-1.024-1.026-.567 0-1.027.459-1.027 1.026v1.024zm1.232 2.053c1.814 0 3.282 1.468 3.282 3.282s-1.468 3.282-3.282 3.282c-1.813 0-3.281-1.468-3.281-3.282s1.467-3.282 3.281-3.282z" fill="#fff"/></svg>