<svg enable-background="new 0 0 17.988 13.966" height="13.966" viewBox="0 0 17.988 13.966" width="17.988" xmlns="http://www.w3.org/2000/svg"><g fill="#fff"><path d="m14.914 1.814c1.197-.998.902-1.814-.657-1.814h-10.526c-1.56 0-1.854.816-.657 1.814l3.742 3.118c1.197.998 3.158.998 4.355 0z"/><path d="m11.913 7.044c-1.198.998-2.195 1.825-2.218 1.836 0 0 0 0-.02.013-.074.056-.152.102-.235.136-.033.015-.066.034-.1.048-.11.034-.223.058-.335.059-.003 0-.007.001-.01.001 0 0 0 0-.001 0s-.001 0-.001 0c-.003 0-.007-.001-.01-.001-.113-.002-.224-.025-.335-.059-.034-.014-.068-.033-.1-.048-.083-.034-.16-.08-.235-.136-.02-.013-.02-.013-.02-.013-.022-.012-1.02-.838-2.218-1.836l-3.897-3.248c-1.199-.998-2.178-.539-2.178 1.02v6.315c0 1.56 1.275 2.835 2.835 2.835h12.318c1.56 0 2.835-1.275 2.835-2.835v-6.315c0-1.559-.979-2.018-2.178-1.02z"/></g></svg>