<svg enable-background="new -35.422 -7.96 31.92 31.92" height="31.92" viewBox="-35.422 -7.96 31.92 31.92" width="31.92" xmlns="http://www.w3.org/2000/svg"><path d="m-19.462-3.96c6.595 0 11.96 5.365 11.96 11.96s-5.365 11.96-11.96 11.96-11.96-5.365-11.96-11.96 5.365-11.96 11.96-11.96m0-4c-8.814 0-15.96 7.145-15.96 15.96 0 8.813 7.146 15.96 15.96 15.96s15.96-7.147 15.96-15.96c0-8.815-7.146-15.96-15.96-15.96z" fill="#231f20"/><path d="m-19.462 16.331c4.706 0 8.52-3.813 8.52-8.52 0-4.705-3.813-8.519-8.52-8.519"/></svg>