<svg enable-background="new 0 0 146.3 40.375" height="40.375" viewBox="0 0 146.3 40.375" width="146.3" xmlns="http://www.w3.org/2000/svg"><g fill="#283645"><path d="m71.874 18.661c0-.708.58-1.288 1.256-1.288h7.18c5.087 0 8.436 2.704 8.436 7.146v.063c0 4.86-4.057 7.373-8.854 7.373h-5.475v6.825c0 .708-.58 1.287-1.289 1.287-.676 0-1.256-.58-1.256-1.287zm8.114 10.98c3.734 0 6.182-1.996 6.182-4.959v-.062c0-3.221-2.414-4.894-6.053-4.894h-5.699v9.917h5.57z"/><path d="m93.603 18.5c0-.708.579-1.288 1.255-1.288.709 0 1.288.58 1.288 1.288v20.283c0 .708-.579 1.287-1.288 1.287-.676 0-1.255-.579-1.255-1.287z"/><path d="m102.744 18.532c0-.676.58-1.256 1.256-1.256h.354c.58 0 .935.29 1.288.74l13.684 17.45v-16.998c0-.676.547-1.256 1.256-1.256.676 0 1.225.58 1.225 1.256v20.349c0 .677-.48 1.19-1.158 1.19h-.129c-.548 0-.936-.321-1.318-.772l-13.976-17.867v17.449c0 .677-.547 1.257-1.257 1.257-.676 0-1.223-.58-1.223-1.257v-20.285z"/><path d="m128.173 18.5c0-.708.58-1.288 1.257-1.288.708 0 1.286.58 1.286 1.288v12.331l12.848-13.168c.29-.257.579-.451.998-.451.676 0 1.225.612 1.225 1.256 0 .354-.162.644-.42.901l-7.984 7.92 8.564 10.561c.225.291.354.547.354.936 0 .676-.577 1.288-1.285 1.288-.482 0-.807-.259-1.03-.58l-8.401-10.464-4.863 4.861v4.895c0 .708-.578 1.288-1.286 1.288-.677 0-1.257-.58-1.257-1.288v-20.286z"/></g><path d="m98.498 9.875c-2.002 0-3.623-1.623-3.623-3.624 0 2.001-1.623 3.624-3.625 3.624 2.002 0 3.625 1.623 3.625 3.624 0-2.001 1.621-3.624 3.623-3.624z" fill="#d22856"/><path d="m43.094 19.313c.246 0 .489.014.73.033-.437-.728-1.227-1.221-2.136-1.221-.877 0-1.614-.568-1.884-1.354-.727.208-1.425.482-2.089.816.062.017.122.038.188.038 1.104 0 2 .896 2 2 0 .096-.015.188-.028.281 1-.382 2.084-.593 3.219-.593z" fill="#d22856"/><path d="m60.462 28.016c-.002-.009-5.175-21.365-5.175-21.365-.361-2.348-2.593-6.651-8.599-6.651-.829 0-1.5.671-1.5 1.5s.671 1.5 1.5 1.5c4.856 0 5.575 3.729 5.639 4.143l4.767 19.701h-2.073c-.445-3.557-2.453-6.628-5.305-8.522-.897.379-1.529 1.269-1.529 2.303 0 .088-.015.171-.026.256 1.991 1.358 3.415 3.489 3.829 5.965.082.488.135.987.135 1.5 0 .512-.053 1.012-.135 1.5-.716 4.271-4.421 7.53-8.896 7.53s-8.181-3.259-8.896-7.53c-.082-.488-.135-.988-.135-1.5 0-.513.053-1.012.135-1.5.147-.879.427-1.712.808-2.484-1.034-.077-1.852-.932-1.852-1.984 0-.189-.077-.357-.192-.488-.938 1.469-1.569 3.149-1.795 4.957h-1.82c-.741-5.927-5.802-10.531-11.927-10.531s-11.185 4.601-11.927 10.528h-2.073l4.767-19.701c.063-.414.783-4.143 5.639-4.143.829 0 1.5-.671 1.5-1.5s-.671-1.5-1.5-1.5c-6.006 0-8.238 4.303-8.599 6.651 0 0-5.173 21.356-5.175 21.365-.266 1.109.531 1.826 1.426 1.826.012 0 .023.004.036.004h3.982c.079.629.215 1.237.387 1.831.059-.106.102-.224.102-.354 0-1.104.896-2 2-2 .166 0 .324.024.478.062-.043-.343-.074-.688-.074-1.042 0-.512.053-1.011.135-1.5.715-4.271 4.421-7.531 8.896-7.531s8.18 3.26 8.896 7.531c.082.489.135.988.135 1.5s-.053 1.012-.135 1.5c-.715 4.272-4.421 7.531-8.896 7.531-2.022 0-3.883-.67-5.386-1.794-.35.302-.8.491-1.299.491-.413 0-.749.336-.749.748 0 .289-.065.563-.176.812 2.075 1.708 4.722 2.743 7.614 2.743 6.125 0 11.185-4.604 11.927-10.529h1.814c.742 5.926 5.802 10.529 11.927 10.529s11.186-4.604 11.927-10.529h3.981c.012 0 .023-.005.036-.005.895.002 1.692-.715 1.426-1.824z" fill="#d22856"/><path d="m50.686 16.125c-2.485 0-4.499-2.014-4.499-4.499 0 2.485-2.014 4.499-4.499 4.499 2.485 0 4.499 2.014 4.499 4.499 0-2.485 2.013-4.499 4.499-4.499z" fill="#283645"/><path d="m37.904 19.626c-1.519 0-2.749-1.23-2.749-2.749 0 1.519-1.23 2.749-2.749 2.749 1.519 0 2.749 1.229 2.749 2.749 0-1.52 1.231-2.749 2.749-2.749z" fill="#283645"/><path d="m10.734 34.072c-1.519 0-2.749-1.23-2.749-2.75 0 1.52-1.23 2.75-2.749 2.75 1.519 0 2.749 1.229 2.749 2.748 0-1.517 1.23-2.748 2.749-2.748z" fill="#283645"/></svg>