<svg xmlns="http://www.w3.org/2000/svg">
    <symbol id="logo-android" viewBox="0 0 42.084 47.041" height="47.041" width="42.084">
      <g fill="#a4c639">
        <path
          d="m34.144 14.009h-26.199c-.009.11-.018.22-.018.333v18.755c0 1.926 1.457 3.49 3.316 3.627v7.43c0 1.594 1.291 2.885 2.885 2.885 1.593 0 2.885-1.291 2.885-2.885v-7.42h8.058v7.42c0 1.594 1.291 2.885 2.885 2.885 1.595 0 2.886-1.291 2.886-2.885v-7.434c1.858-.137 3.315-1.701 3.315-3.627v-18.751c0-.113-.004-.223-.013-.333z" />
        <path
          d="m2.886 15.679c1.593 0 2.886 1.292 2.886 2.885v12.378c0 1.595-1.292 2.886-2.886 2.886s-2.886-1.291-2.886-2.886v-12.378c0-1.594 1.292-2.885 2.886-2.885z" />
        <path
          d="m39.198 15.679c1.595 0 2.886 1.292 2.886 2.885v12.378c0 1.595-1.291 2.886-2.886 2.886-1.594 0-2.885-1.291-2.885-2.886v-12.378c0-1.594 1.291-2.885 2.885-2.885z" />
        <path
          d="m8.03 11.967h26.026c-.039-2.783-1.234-5.322-3.187-7.275l2.446-4.235c.082-.146.031-.331-.112-.415-.146-.084-.331-.034-.415.111l-2.372 4.107c-2.052-1.853-6.249-3.4-9.374-3.4-3.016 0-7.322 1.547-9.374 3.4l-2.372-4.108c-.083-.145-.269-.194-.415-.111-.145.084-.195.27-.111.415l2.445 4.235c-1.95 1.954-3.147 4.493-3.185 7.276zm17.293-5.163c-.002-.805.664-1.46 1.488-1.462.826-.002 1.494.648 1.498 1.454v.008c.002.805-.664 1.46-1.49 1.462-.823.002-1.493-.649-1.496-1.454 0-.002 0-.005 0-.008zm-11.143 0c-.001-.805.665-1.46 1.489-1.462s1.494.648 1.497 1.454v.008c.002.805-.664 1.46-1.488 1.462-.825.002-1.495-.649-1.498-1.454 0-.002 0-.005 0-.008z" />
      </g>
    </symbol>
    <symbol id="logo-apple" viewBox="0 0 46.21 56.753" height="56.753" width="46.21">
      <path
        d="m38.593 30.15c.081 8.59 7.535 11.447 7.617 11.483-.062.202-1.19 4.073-3.927 8.072-2.365 3.457-4.82 6.901-8.688 6.973-3.799.07-5.021-2.253-9.365-2.253s-5.702 2.182-9.298 2.32c-3.733.142-6.576-3.739-8.961-7.184-4.875-7.046-8.598-19.91-3.597-28.593 2.484-4.313 6.925-7.043 11.743-7.114 3.666-.069 7.126 2.466 9.366 2.466 2.241 0 6.444-3.049 10.865-2.601 1.85.077 7.044.747 10.38 5.629-.269.171-6.197 3.623-6.135 10.802m-7.14-21.088c1.982-2.4 3.316-5.739 2.952-9.062-2.857.115-6.312 1.904-8.36 4.302-1.837 2.123-3.445 5.521-3.011 8.778 3.184.246 6.436-1.619 8.419-4.018"
        fill="#fff" />
    </symbol>
    <symbol id="logo-microsoft" viewBox="0 0 43.922 41.992" height="41.992" width="43.922">
      <path d="m20.874 19.953h-20.874v-19.953h20.874z" fill="#f05423" />
      <path d="m43.922 19.953h-20.873v-19.953h20.873z" fill="#84c441" />
      <path d="m20.873 41.992h-20.873v-19.952h20.873z" fill="#2dabe2" />
      <path d="m43.922 41.992h-20.873v-19.952h20.873z" fill="#f9bc15" />
    </symbol>
    <symbol id="logo-htmlacademy" viewBox="0 0 26.943 34.09" height="34.09" width="26.943">
      <path
        d="m13.62.017-.148-.017-13.472 1.412v24.661l13.472 8.017 13.43-7.99.042-.026v-24.662zm11.399 12.11-11.524-6.793-.001-.104-.087.05-.088-.056v.109l-11.394 6.785v-8.971l11.547-1.212 11.547 1.212zm-11.614-5.34 11.518 6.713-4.479 2.64-7.093-4.221-.013 1.415 5.904 3.513-.86.507-5.031-2.992-.013 1.415 3.827 2.275-.782.523-3.032-1.787-.013 1.413 1.852 1.091-1.8 1.081-11.356-6.751zm-11.48 8.34 11.411 6.791.015 1.044-7.941-4.728-.015 1.416 7.979 4.796.017 1.076-7.972-4.741-.013 1.415 8.021 4.821.045.026 8.143-4.872v-1.268l-.011-.148v-3.761l3.415-2.036v10.02l-11.547 6.872-11.547-6.871z" />
    </symbol>
    <symbol id="icon-editor-contrast" viewBox="-35.422 -7.96 31.92 31.92" height="31.92" width="31.92">
      <path
        d="m-19.462-3.96c6.595 0 11.96 5.365 11.96 11.96s-5.365 11.96-11.96 11.96-11.96-5.365-11.96-11.96 5.365-11.96 11.96-11.96m0-4c-8.814 0-15.96 7.145-15.96 15.96 0 8.813 7.146 15.96 15.96 15.96s15.96-7.147 15.96-15.96c0-8.815-7.146-15.96-15.96-15.96z" />
      <path d="m-19.462 16.331c4.706 0 8.52-3.813 8.52-8.52 0-4.705-3.813-8.519-8.52-8.519" />
    </symbol>
    <symbol id="icon-editor-crop" viewBox="0 0 48 48" height="48" width="48">
      <path d="m0 0h48v48h-48z" fill="none" />
      <path d="m34 30h4v-16c0-2.21-1.79-4-4-4h-16v4h16zm-20 4v-32h-4v8h-8v4h8v20c0 2.21 1.79 4 4 4h20v8h4v-8h8v-4z" />
    </symbol>
    <symbol id="icon-editor-fill" viewBox="0 0 48 48" height="48" width="48">
      <path d="m0 0h48v48h-48z" fill="none" />
      <path
        d="m33.12 17.88-17.88-17.88-2.83 2.83 4.76 4.76-10.29 10.29c-1.17 1.17-1.17 3.07 0 4.24l11 11c.58.59 1.35.88 2.12.88s1.54-.29 2.12-.88l11-11c1.17-1.17 1.17-3.07 0-4.24zm-22.71 2.12 9.59-9.58 9.59 9.58zm27.59 3s-4 4.33-4 7c0 2.21 1.79 4 4 4s4-1.79 4-4c0-2.67-4-7-4-7z" />
      <path d="m0 40h48v3h-48z" />
    </symbol>
  </svg>
